<svg xmlns="http://www.w3.org/2000/svg" viewBox="0 0 32.24 32.24"><defs><style>.cls-1{fill:#d4d3e0;}</style></defs><g id="Layer_2" data-name="Layer 2"><g id="Interface"><circle class="cls-1" cx="16.12" cy="16.12" r="16.12"/><path d="M14,19.66v-.29A8.58,8.58,0,0,1,14.28,17,3.51,3.51,0,0,1,15,15.62a5.78,5.78,0,0,1,1.19-1,7.05,7.05,0,0,0,.93-.7,2.77,2.77,0,0,0,.66-.8,2,2,0,0,0,.24-1,1.82,1.82,0,0,0-.28-1,1.84,1.84,0,0,0-.74-.67,2.37,2.37,0,0,0-2.06,0,2,2,0,0,0-.79.7,2.2,2.2,0,0,0-.34,1.15H10.42a5,5,0,0,1,.8-2.77,4.66,4.66,0,0,1,2-1.63A6.91,6.91,0,0,1,16,7.4,7.54,7.54,0,0,1,19,7.94a4.67,4.67,0,0,1,2,1.59A4.32,4.32,0,0,1,21.72,12a4.29,4.29,0,0,1-.33,1.74,4,4,0,0,1-.9,1.34,7,7,0,0,1-1.36,1.06A4.92,4.92,0,0,0,18,17a2.7,2.7,0,0,0-.63,1,4,4,0,0,0-.21,1.38v.29ZM15.68,25a1.93,1.93,0,0,1-1.43-.6A1.89,1.89,0,0,1,13.66,23a1.92,1.92,0,0,1,.59-1.41,2,2,0,0,1,2.83,0A2,2,0,0,1,17.69,23a2,2,0,0,1-.29,1,2.13,2.13,0,0,1-.73.73A1.9,1.9,0,0,1,15.68,25Z"/></g></g></svg>